<svg width="101" height="100" viewBox="0 0 101 100" fill="none" xmlns="http://www.w3.org/2000/svg">
<g clip-path="url(#clip0_4180_18758)">
<path d="M72.8403 32.8156V85.2691C72.8403 86.4695 71.9904 86.9559 70.9462 86.3557L34.7706 65.5861C34.2182 65.2303 33.7586 64.7493 33.4293 64.1827C33.1001 63.616 32.9106 62.9798 32.8765 62.3263V9.86241C32.8626 8.66197 33.7091 8.17559 34.7706 8.7758L49.4969 17.2409C49.5285 18.2818 49.8066 19.3006 50.3086 20.2144L35.2285 11.5596V62.6574L70.4709 82.8924V31.8014L55.3908 23.1327C55.8973 22.7498 56.2026 22.0496 56.2026 21.0906L70.9462 29.5523C71.4977 29.9099 71.9566 30.3917 72.2857 30.9587C72.6148 31.5257 72.8048 32.1619 72.8403 32.8156Z" fill="#C3DBF4"/>
<path fill-rule="evenodd" clip-rule="evenodd" d="M71.1109 86.0692C71.5726 86.3346 71.915 86.3187 72.1205 86.201C72.3252 86.0836 72.5099 85.7986 72.5099 85.2691V32.8247C72.476 32.2263 72.3014 31.6439 71.9999 31.1246C71.6984 30.6052 71.2785 30.1632 70.7738 29.8343L56.499 21.6417C56.4257 22.2124 56.2348 22.6973 55.9345 23.0641L70.8014 31.6102V83.4631L34.8981 62.8487V10.9889L49.5848 19.418C49.3522 18.7825 49.2136 18.1152 49.1747 17.4369L34.608 9.06344C34.6077 9.06325 34.6073 9.06307 34.607 9.06288C34.1351 8.79636 33.7893 8.81304 33.5848 8.93044C33.3825 9.04653 33.2008 9.32908 33.2069 9.85859L33.207 9.86241L33.2069 62.3175C33.2395 62.9156 33.4135 63.4978 33.715 64.0167C34.0166 64.5357 34.4372 64.9767 34.9426 65.3038L71.1109 86.0692ZM34.7706 65.5861C34.2182 65.2303 33.7586 64.7493 33.4293 64.1827C33.1001 63.616 32.9106 62.9798 32.8765 62.3263V9.86241C32.8626 8.66197 33.7091 8.17559 34.7706 8.7758L49.4969 17.2409C49.5225 18.0843 49.7099 18.9131 50.0472 19.6834C50.1262 19.8638 50.2134 20.041 50.3086 20.2144L35.2285 11.5596V62.6574L70.4709 82.8924V31.8014L55.3908 23.1327C55.4816 23.0641 55.5659 22.9853 55.6432 22.8966C55.9391 22.5569 56.1315 22.0724 56.1864 21.4623C56.1971 21.3431 56.2026 21.2192 56.2026 21.0906L70.9462 29.5523C71.4977 29.9099 71.9566 30.3917 72.2857 30.9587C72.6148 31.5257 72.8048 32.1619 72.8403 32.8156V85.2691C72.8403 86.4695 71.9904 86.9559 70.9462 86.3557L34.7706 65.5861Z" fill="#19386D"/>
<path d="M70.4707 31.8016V82.8926L35.2283 62.6577V11.5598L50.3084 20.2147C50.8813 21.3619 51.7611 22.3298 52.8512 23.0122C53.8642 23.5952 54.7765 23.5987 55.3906 23.133L70.4707 31.8016Z" fill="white"/>
<path fill-rule="evenodd" clip-rule="evenodd" d="M52.8512 23.0122C51.7611 22.3298 50.8813 21.3619 50.3084 20.2147L35.2283 11.5598V62.6577L70.4707 82.8926V31.8016L55.3906 23.133C54.7765 23.5987 53.8642 23.5952 52.8512 23.0122ZM55.4036 23.5216L70.1402 31.9928V82.3219L35.5587 62.4664V12.1304L50.0584 20.4522C50.6592 21.6146 51.563 22.5957 52.6759 23.2923L52.6864 23.2986C53.6798 23.8704 54.6621 23.9597 55.4036 23.5216Z" fill="#19386D"/>
<path d="M60.2022 23.3847L56.2024 21.1081C56.2024 22.067 55.8971 22.7673 55.3906 23.1502C54.7766 23.6159 53.8642 23.6124 52.8512 23.0294C51.7611 22.347 50.8813 21.3791 50.3084 20.2319C49.8064 19.318 49.5282 18.2992 49.4966 17.2584L45.5002 14.9438C46.4404 11.8392 49.3752 10.8768 52.8512 12.874C56.3272 14.8713 59.2586 19.2039 60.2022 23.3847Z" fill="#C3DBF4"/>
<path fill-rule="evenodd" clip-rule="evenodd" d="M60.2022 23.3847C60.1691 23.2379 60.1335 23.0909 60.0955 22.9438C59.052 18.9025 56.2052 14.8012 52.8512 12.874C49.3752 10.8768 46.4404 11.8392 45.5002 14.9438L49.4966 17.2584C49.5282 18.2992 49.8064 19.318 50.3084 20.2319C50.8813 21.3791 51.7611 22.347 52.8512 23.0294C53.8642 23.6124 54.7766 23.6159 55.3906 23.1502C55.8293 22.8185 56.117 22.2488 56.1862 21.4791C56.1969 21.3601 56.2024 21.2364 56.2024 21.1081L60.2022 23.3847ZM53.0213 22.7461C53.9656 23.2877 54.7222 23.2424 55.1909 22.8869C55.5876 22.587 55.8719 22.0031 55.8719 21.1081V20.5398L59.6912 22.7137C58.6038 18.8484 55.8664 14.9876 52.6866 13.1605C50.9987 12.1907 49.4905 11.9671 48.3182 12.3126C47.2242 12.6352 46.3643 13.4704 45.8976 14.792L49.8213 17.0646L49.8269 17.2484C49.8569 18.2369 50.1211 19.2046 50.598 20.0728L50.6042 20.0841C51.149 21.175 51.985 22.096 53.0213 22.7461Z" fill="#19386D"/>
<path fill-rule="evenodd" clip-rule="evenodd" d="M34.9799 11.1272C35.1329 11.0386 35.3216 11.0383 35.475 11.1264L50.5551 19.7847C50.7925 19.921 50.8744 20.2239 50.7381 20.4613C50.6018 20.6987 50.2989 20.7806 50.0615 20.6443L35.7238 12.4123V62.3671L69.9749 82.0329V32.0781L55.1437 23.5626C54.9063 23.4263 54.8243 23.1234 54.9606 22.886C55.0969 22.6486 55.3999 22.5667 55.6373 22.703L70.7174 31.3613C70.8713 31.4497 70.9662 31.6136 70.9662 31.7911V82.889C70.9662 83.0658 70.872 83.2293 70.7189 83.3179C70.5658 83.4065 70.3772 83.4069 70.2238 83.3188L34.9814 63.0839C34.8275 62.9955 34.7325 62.8315 34.7325 62.654V11.5562C34.7325 11.3793 34.8268 11.2159 34.9799 11.1272Z" fill="#19386D"/>
<path fill-rule="evenodd" clip-rule="evenodd" d="M39.7129 25.6992C39.8444 25.4592 40.1457 25.3713 40.3857 25.5029L66.435 39.784C66.6751 39.9155 66.763 40.2168 66.6314 40.4568C66.4998 40.6969 66.1985 40.7848 65.9585 40.6532L39.9092 26.3721C39.6692 26.2405 39.5813 25.9393 39.7129 25.6992Z" fill="#19386D"/>
<path fill-rule="evenodd" clip-rule="evenodd" d="M38.4952 30.1895C38.6235 29.9477 38.9235 29.8556 39.1653 29.9839L65.1834 43.782C65.4253 43.9103 65.5173 44.2103 65.3891 44.4521C65.2608 44.6939 64.9608 44.786 64.719 44.6578L38.7009 30.8596C38.4591 30.7314 38.367 30.4314 38.4952 30.1895Z" fill="#19386D"/>
<path fill-rule="evenodd" clip-rule="evenodd" d="M38.4952 35.7087C38.6235 35.4669 38.9235 35.3748 39.1653 35.5031L65.1834 49.3012C65.4253 49.4294 65.5173 49.7294 65.3891 49.9713C65.2608 50.2131 64.9608 50.3052 64.719 50.1769L38.7009 36.3788C38.4591 36.2506 38.367 35.9505 38.4952 35.7087Z" fill="#19386D"/>
<path fill-rule="evenodd" clip-rule="evenodd" d="M48.086 11.517C49.5422 11.0878 51.2868 11.3991 53.0984 12.4411C56.709 14.5178 59.7165 18.9813 60.6857 23.2758C60.746 23.5428 60.5784 23.8081 60.3114 23.8684C60.0443 23.9286 59.779 23.761 59.7188 23.494C58.8008 19.4268 55.9387 15.2183 52.6042 13.3004C50.9432 12.3451 49.4823 12.1389 48.3662 12.4678C47.2673 12.7917 46.4051 13.6627 45.9747 15.0841C45.8953 15.3461 45.6186 15.4942 45.3566 15.4148C45.0947 15.3355 44.9466 15.0588 45.0259 14.7968C45.5356 13.1136 46.6127 11.9512 48.086 11.517Z" fill="#19386D"/>
<path fill-rule="evenodd" clip-rule="evenodd" d="M33.667 9.07388C33.535 9.1497 33.3664 9.36268 33.3722 9.85683L33.3722 9.86255H33.3722V62.3131C33.4039 62.8835 33.5702 63.4387 33.8579 63.9338C34.1456 64.429 34.5467 64.8501 35.0287 65.1629L71.193 85.926L71.1932 85.9261C71.6248 86.1742 71.9017 86.1361 72.0384 86.0578C72.1739 85.9801 72.3447 85.7634 72.3447 85.2692V32.8296C72.3117 32.2587 72.1447 31.7033 71.8571 31.2077C71.5694 30.712 71.1689 30.29 70.6875 29.9754L56.6241 21.9041C56.491 22.5916 56.1791 23.155 55.6915 23.527L55.689 23.5289C54.8598 24.1531 53.7184 24.0829 52.6043 23.4417C52.6017 23.4402 52.5991 23.4387 52.5965 23.4372C52.5937 23.4355 52.5909 23.4338 52.5881 23.432C51.4248 22.7022 50.4845 21.6691 49.8697 20.4448C49.3782 19.5466 49.0873 18.5544 49.0156 17.5361L45.2535 15.3734L45.2535 15.3734L34.5267 9.2074C34.5262 9.20713 34.5257 9.20686 34.5253 9.20658C34.0829 8.95689 33.8026 8.99606 33.667 9.07388ZM33.1736 8.21414C33.723 7.8988 34.3963 7.99488 35.0146 8.3445L35.0177 8.34623L35.0177 8.34624L45.7475 14.514L45.7475 14.514L49.7439 16.8114C49.893 16.8971 49.987 17.054 49.9923 17.2259C50.0219 18.1884 50.2791 19.1306 50.7432 19.9761C50.7462 19.9816 50.7491 19.9871 50.7519 19.9927C51.2836 21.0549 52.098 21.9523 53.1068 22.5872C54.0137 23.1064 54.6937 23.0364 55.0916 22.7378C55.4352 22.4749 55.707 21.9513 55.707 21.0908C55.707 20.9139 55.8012 20.7505 55.9543 20.6618C56.1073 20.5732 56.296 20.5729 56.4493 20.6609L71.1929 29.1226C71.2007 29.127 71.2083 29.1317 71.2159 29.1366C71.8326 29.5364 72.3461 30.0754 72.7144 30.71C73.0828 31.3446 73.2955 32.0569 73.3353 32.7888C73.3357 32.7978 73.336 32.8067 73.336 32.8157V85.2692C73.336 85.9755 73.0818 86.6022 72.5313 86.9178C71.9821 87.2326 71.3119 87.1377 70.6994 86.7857C70.6994 86.7856 70.6993 86.7856 70.6992 86.7855L34.5239 66.0161C34.5166 66.0119 34.5094 66.0075 34.5023 66.0029C33.8842 65.6048 33.3695 65.0664 33.0008 64.4318C32.632 63.7972 32.4198 63.0845 32.3816 62.3522C32.3811 62.3436 32.3809 62.335 32.3809 62.3264V9.86529C32.3735 9.16021 32.6213 8.53112 33.1736 8.21414Z" fill="#19386D"/>
<path d="M60.095 77.5754V67.6768L63.5641 68.3667L62.8702 79.0602L60.095 77.5754Z" fill="#19386D"/>
<path d="M61.4844 59.964C63.9657 61.2855 65.9921 64.4981 65.9921 67.1335C65.9921 68.6525 65.3098 69.674 64.2552 69.9854C63.4901 70.2132 62.5266 70.0803 61.4844 69.5221C60.3733 68.8945 59.4271 68.049 58.7136 67.0462C57.6535 65.6681 57.049 64.0384 56.9725 62.3526C56.9725 59.7134 58.9948 58.6425 61.4844 59.964Z" fill="#EC9B26"/>
</g>
<path d="M46.497 70.1697L47.6013 69.5314C47.6014 69.5313 47.6016 69.5312 47.6017 69.5311C47.8473 69.3862 48.0241 69.1071 48.1008 68.7233C48.1773 68.34 48.151 67.8625 47.9985 67.3444C47.8374 66.7971 47.7998 66.2814 47.8823 65.8525C47.9648 65.4236 48.1699 65.0726 48.5007 64.8775C48.8454 64.6738 49.0373 64.2355 49.0373 63.6503C49.0373 63.0688 48.8457 62.368 48.4559 61.6883C47.8636 60.6557 47.6673 59.4955 48.0039 58.7286L48.0043 58.7277C48.2015 58.2887 48.1911 57.6661 47.9942 57.0046C47.7984 56.3465 47.4231 55.668 46.9162 55.1271C46.1284 54.2984 45.6143 53.1181 45.6141 52.1246M46.497 70.1697L45.7387 52.1242M46.497 70.1697C46.5504 70.051 46.5913 69.921 46.6194 69.7821C46.7059 69.3545 46.6735 68.8347 46.5085 68.2708C46.3518 67.735 46.3204 67.2575 46.3938 66.8796C46.4671 66.5023 46.6424 66.2326 46.894 66.0896L46.8955 66.0887C47.3483 65.8227 47.5549 65.2767 47.5549 64.6478C47.5549 64.0152 47.348 63.2715 46.9405 62.561C46.3675 61.5619 46.2214 60.487 46.503 59.8352C46.7339 59.3153 46.7088 58.623 46.5027 57.9324C46.2956 57.2384 45.9004 56.5279 45.3658 55.9626L45.3653 55.962C44.6299 55.1938 44.1926 54.1887 44.1317 53.1271C44.1309 52.4445 43.8919 51.6996 43.5124 51.0432C43.1322 50.3855 42.6043 49.8052 42.0147 49.4605L42.0145 49.4604C41.2168 48.9957 40.4915 48.0127 40.1775 46.9782M46.497 70.1697L40.1775 46.9782M45.6141 52.1246C45.6141 52.1245 45.6141 52.1243 45.6141 52.1242H45.7387M45.6141 52.1246C45.6141 52.1247 45.6141 52.1248 45.6141 52.1249L45.7387 52.1242M45.6141 52.1246C45.6105 51.491 45.3885 50.7872 45.0254 50.1585C44.6623 49.5297 44.1643 48.987 43.6204 48.669L43.6147 48.6657L43.6148 48.6655C42.6769 48.0479 41.9895 47.1167 41.6755 46.0385M45.7387 52.1242C45.7312 50.8038 44.8169 49.2242 43.6833 48.5615C42.7699 47.96 42.1004 47.053 41.7948 46.0028M41.6755 46.0385C41.6755 46.0388 41.6756 46.039 41.6757 46.0392L41.7948 46.0028M41.6755 46.0385C41.4582 45.3277 41.0591 44.6633 40.5872 44.1645C40.113 43.6631 39.5781 43.342 39.0937 43.2915L39.0935 43.2915C38.6748 43.2471 38.2399 43.0343 37.8381 42.7099C37.4352 42.3846 37.0588 41.9416 36.7568 41.4242L36.7567 41.4241C36.3634 40.7495 35.8505 40.2342 35.3448 39.9451C34.8358 39.6541 34.3583 39.6036 34.0092 39.805L34.0075 39.806L34.0075 39.806C33.3338 40.1809 32.4175 39.8491 31.6145 39.0057C31.2287 38.6006 30.8274 38.338 30.4609 38.2155C30.0945 38.093 29.7711 38.1122 29.525 38.2552L29.5246 38.2554L28.4176 38.8935C28.5486 38.9074 28.6829 38.9381 28.8181 38.9841C29.2333 39.1255 29.6675 39.4142 30.0654 39.8275C30.4428 40.2195 30.8404 40.4843 31.2077 40.6118C31.5749 40.7393 31.9024 40.7271 32.1564 40.5829L32.1569 40.5826C32.6149 40.3253 33.1906 40.4192 33.7351 40.7334C34.2828 41.0494 34.8229 41.5997 35.2354 42.3075C35.5263 42.8028 35.8854 43.2218 36.2627 43.526C36.6412 43.831 37.031 44.015 37.3834 44.0528L37.3701 44.1767M41.6755 46.0385C41.6754 46.0382 41.6753 46.0379 41.6752 46.0377L41.7948 46.0028M41.7948 46.0028C41.3489 44.5429 40.158 43.2773 39.1066 43.1676C38.3318 43.0854 37.4548 42.3729 36.8644 41.3614L40.1775 46.9782M32.2179 40.6912C33.0251 40.2378 34.3206 40.9852 35.1279 42.3704C35.7233 43.3844 36.6028 44.0944 37.3701 44.1767M32.2179 40.6912L41.9518 49.568C41.1221 49.0847 40.3797 48.0732 40.0583 47.0144C39.6173 45.5519 38.419 44.2863 37.3701 44.1767M32.2179 40.6912C31.6299 41.025 30.7505 40.7186 29.9757 39.9139C29.3943 39.3101 28.7442 38.991 28.2148 39.0103L32.2179 40.6912ZM37.3701 44.1767L37.3831 44.0528C37.9487 44.1119 38.5362 44.4784 39.0326 45.0025C39.5313 45.529 39.9512 46.2278 40.1775 46.9782" fill="#A6CAEF" stroke="#19386D" stroke-width="0.249139"/>
<path d="M25.3989 63.8635C24.2678 63.2008 23.3485 61.6213 23.341 60.2984M25.3989 63.8635C26.2285 64.3444 26.9735 65.3509 27.2949 66.4197C27.3601 66.6453 27.4434 66.8652 27.544 67.0774C28.0996 68.2359 29.0887 69.1602 29.9756 69.2549M25.3989 63.8635L25.4619 63.7561C24.9191 63.4381 24.4205 62.8953 24.0564 62.2661C23.6923 61.637 23.4692 60.9325 23.4656 60.2977H23.4657L23.4654 60.2916C23.4048 59.1716 22.9478 58.1097 22.1762 57.2957C21.673 56.7547 21.2994 56.0769 21.1036 55.4177C20.9068 54.7554 20.8942 54.1297 21.0883 53.6839C21.4226 52.9267 21.2282 51.7789 20.6366 50.7372L20.6363 50.7368C20.2465 50.0558 20.0549 49.355 20.0549 48.7738C20.0549 48.1889 20.2468 47.7512 20.5916 47.5475C20.923 47.3521 21.1246 46.9998 21.2053 46.5708C21.286 46.1418 21.2486 45.626 21.0941 45.0794C20.9472 44.56 20.9185 44.0896 20.9883 43.7125C21.058 43.336 21.2235 43.0622 21.4576 42.9127L21.5399 42.8646C21.7064 42.7888 21.8902 42.7589 22.0722 42.7782L22.0738 42.7783C22.4111 42.8096 22.7087 42.726 22.9427 42.5397C23.1755 42.3544 23.3353 42.0757 23.4149 41.7336C23.4556 41.5609 23.4759 41.384 23.4756 41.2066L23.351 41.2068M25.3989 63.8635L25.4614 63.7558C26.323 64.2551 27.0853 65.2902 27.4142 66.3838L27.4145 66.3851C27.4779 66.6042 27.5588 66.8178 27.6565 67.024C27.9278 67.5895 28.3045 68.0967 28.7192 68.4728C29.1357 68.8505 29.581 69.0875 29.9887 69.131M23.341 60.2984L37.3701 73.5127C36.6027 72.7105 35.7232 72.404 35.1278 72.7379C34.3804 73.154 33.2493 72.551 32.4321 71.39C32.3574 71.2854 32.2851 71.1758 32.2179 71.0587M23.341 60.2984C23.282 59.2077 22.8369 58.1736 22.0854 57.3809L23.341 60.2984ZM29.9756 69.2549C30.7504 69.3371 31.6349 70.0422 32.2179 71.0587M29.9756 69.2549L29.9887 69.131M29.9756 69.2549L29.9888 69.1311C29.9888 69.1311 29.9888 69.131 29.9887 69.131M32.2179 71.0587L32.3259 70.9967C32.3259 70.9967 32.3259 70.9967 32.3259 70.9966L32.2179 71.0587ZM23.351 41.2068H23.4756C23.4756 40.5814 23.6988 40.1741 24.0208 39.9895C24.3434 39.8045 24.8074 39.8161 25.3468 40.1264L25.3471 40.1266C25.7791 40.3731 26.2032 40.4669 26.5711 40.3958C26.9437 40.3237 27.2418 40.0854 27.4179 39.7045L27.4179 39.7045L27.4186 39.7029C27.4833 39.5577 27.5799 39.429 27.7014 39.3265C27.7335 39.2996 27.7685 39.2763 27.8058 39.257L27.8058 39.257L27.8088 39.2553C28.3098 38.9767 29.1178 39.1829 29.9005 40.0023C30.7054 40.8451 31.6196 41.1802 32.2937 40.8022L32.2938 40.8022C32.643 40.606 33.1186 40.6591 33.6255 40.9516C34.1292 41.2422 34.6404 41.7582 35.0351 42.4355C35.6325 43.4655 36.5405 44.2147 37.3719 44.3029L37.3721 44.3029C37.8552 44.3534 38.3901 44.6745 38.8647 45.1762C39.337 45.6754 39.7367 46.3406 39.954 47.0528C40.2828 48.1412 41.0424 49.1761 41.9038 49.678C42.4477 49.996 42.9463 50.5387 43.3097 51.1675C43.6732 51.7962 43.8951 52.5 43.8975 53.1336L43.8973 53.1336L43.8977 53.1401C43.9612 54.262 44.4229 55.3244 45.1998 56.1362C45.7066 56.6771 46.0825 57.3555 46.2789 58.0136C46.4763 58.6752 46.4873 59.2977 46.2902 59.7366L46.2901 59.7368C46.1202 60.117 46.0866 60.5985 46.1662 61.108C46.246 61.619 46.4409 62.1671 46.7393 62.6873C47.129 63.367 47.3207 64.0683 47.3207 64.6502C47.3207 65.2359 47.1286 65.674 46.7842 65.8763L46.784 65.8764C46.4531 66.0716 46.2511 66.4198 46.1706 66.8473C46.0901 67.2743 46.1283 67.7895 46.2839 68.342C46.4319 68.8672 46.4583 69.3453 46.3834 69.7274C46.3085 70.1099 46.135 70.3859 45.8917 70.5306L45.8916 70.5306C45.8552 70.5523 45.817 70.5707 45.7773 70.5857C45.6285 70.6408 45.4689 70.6605 45.3111 70.6433L45.309 70.6431C44.8904 70.605 44.5341 70.7422 44.2847 71.0286C44.0385 71.3113 43.9076 71.7261 43.905 72.2265V72.2272C43.905 72.8334 43.6959 73.2373 43.3867 73.4288C43.3865 73.4289 43.3863 73.429 43.3861 73.4292L43.3654 73.4416C43.365 73.4419 43.3645 73.4421 43.364 73.4424C43.3207 73.4667 43.2753 73.487 43.2284 73.5031C43.0289 73.5566 42.8204 73.5671 42.6166 73.5336C42.4116 73.5 42.2161 73.4227 42.0435 73.3071L42.0437 73.3068L42.0358 73.3023C41.8789 73.2129 41.7127 73.1408 41.5402 73.0873L41.5391 73.087C41.2032 72.9861 40.8833 72.987 40.6079 73.0968C40.3315 73.2069 40.112 73.4219 39.9706 73.7259C39.8884 73.8967 39.7593 74.0405 39.5984 74.1406L39.4995 74.1971C39.3681 74.2601 39.224 74.2919 39.0783 74.29L38.9797 74.2888L38.9779 74.2961L29.9887 69.131M23.351 41.2068C23.3513 41.3746 23.3321 41.5418 23.2937 41.7051C23.1442 42.3479 22.7032 42.7116 22.0854 42.6543L27.7483 39.1464C27.703 39.17 27.6604 39.1984 27.6212 39.2311C27.4853 39.3458 27.3772 39.4898 27.3048 39.6522C26.9834 40.3473 26.2385 40.4918 25.4089 40.0184C24.8458 39.6945 24.3326 39.6671 23.9589 39.8814C23.5852 40.0957 23.351 40.5541 23.351 41.2068ZM20.5282 50.7987C19.731 49.406 19.731 47.9112 20.5282 47.4403C21.1112 47.0965 21.2757 46.1796 20.9742 45.1133C20.6727 44.047 20.8471 43.1526 21.3927 42.8063L20.5282 50.7987ZM32.2328 40.6936C33.04 40.2402 34.3355 40.9876 35.1427 42.3728L32.2328 40.6936ZM46.4038 59.7876C46.0899 60.4902 46.2643 61.6088 46.8473 62.6253C47.6446 64.0155 47.6446 65.5153 46.8473 65.9837C46.2643 66.3275 46.0999 67.2294 46.4038 68.3082C46.7078 69.387 46.5209 70.3013 45.9554 70.6376C45.9126 70.6632 45.8675 70.6848 45.8209 70.7024C45.6538 70.7643 45.4747 70.7865 45.2977 70.7672L46.4038 59.7876ZM41.3334 69.0652L41.3335 69.0652C43.0046 67.8854 44.0021 65.6495 44.0021 62.5979C44.0021 59.3196 42.8524 55.6957 40.9989 52.4857C39.1454 49.2756 36.5813 46.4677 33.7401 44.8286C31.1 43.3038 28.6645 43.0569 26.8071 43.9063L26.8064 43.9066C24.6762 44.8961 23.3585 47.3124 23.3585 50.8286C23.3585 54.1081 24.5082 57.732 26.3611 60.9421C28.214 64.1521 30.7768 66.96 33.6155 68.6004L33.6157 68.6006C36.652 70.346 39.4133 70.4188 41.3334 69.0652Z" fill="white" stroke="#19386D" stroke-width="0.249139"/>
<path d="M43.5099 80.8954L42.0761 82.6353L39.2484 74.5289C39.3742 74.5121 39.4969 74.4754 39.6118 74.4197L39.6119 74.42L39.6193 74.4158L39.7239 74.356L39.7241 74.3563L39.7324 74.3507C39.9259 74.2185 40.0784 74.0345 40.1722 73.8198C40.2848 73.5679 40.4592 73.4025 40.6713 73.3185C40.8849 73.2338 41.1479 73.2273 41.442 73.3156C41.5971 73.3637 41.7465 73.4286 41.8876 73.509L41.8876 73.509L41.8888 73.5097C42.3525 73.767 42.7874 73.8579 43.1598 73.7669L46.2594 82.6774L43.6774 80.8725L43.5831 80.8065L43.5099 80.8954Z" fill="#C2DEF6" stroke="#19386D" stroke-width="0.249139"/>
<path d="M45.6397 70.8766C45.6839 70.868 45.7276 70.857 45.7708 70.8437C45.7499 70.9699 45.7392 71.0976 45.7386 71.2257C45.7386 71.876 45.5069 72.3394 45.1332 72.5511L43.8531 73.2903C43.8963 73.2254 43.9347 73.1552 43.9682 73.0801M45.6397 70.8766C45.646 70.8323 45.6535 70.7882 45.6622 70.7443C45.5359 70.7744 45.4049 70.7823 45.2752 70.7673M45.6397 70.8766C45.5158 70.9006 45.3886 70.9057 45.2625 70.8912M45.6397 70.8766C45.6231 70.992 45.6146 71.1084 45.614 71.2251V71.2257C45.614 71.8497 45.3926 72.261 45.0718 72.4427L45.0718 72.4427L45.0709 72.4433L43.9682 73.0801M45.2752 70.7673C44.5054 70.6975 44.0071 71.2706 44.0071 72.2272C44.0055 72.6264 43.9187 72.9543 43.7647 73.1976L43.9682 73.0801M45.2752 70.7673L45.2609 70.891C45.2614 70.8911 45.262 70.8912 45.2625 70.8912M45.2752 70.7673L45.264 70.8914C45.2635 70.8913 45.263 70.8913 45.2625 70.8912M43.9682 73.0801C44.0742 72.8418 44.1304 72.5538 44.1316 72.2277H44.1317V72.2272C44.1317 71.7688 44.2512 71.4189 44.4465 71.1941C44.6384 70.9732 44.9144 70.8601 45.2625 70.8912" fill="#A6CAEF" stroke="#19386D" stroke-width="0.249139"/>
<path d="M33.6131 45.0468L33.6133 45.0468C36.4088 46.6577 38.9452 49.4286 40.783 52.6105C42.6207 55.7924 43.7531 59.3736 43.7531 62.5979C43.7531 65.5999 42.7654 67.7441 41.19 68.8616C39.378 70.1389 36.7281 70.1022 33.7403 68.3797C30.9484 66.7663 28.4138 63.9947 26.577 60.8131C24.7401 57.6315 23.6077 54.0516 23.6077 50.8285C23.6077 47.3688 24.9009 45.0665 26.9088 44.1351C28.6684 43.3232 31.016 43.5468 33.6131 45.0468ZM36.2115 63.3015L36.2117 63.3019L36.2201 63.2966C37.1714 62.7054 37.7339 61.5047 37.7339 59.8598C37.7339 58.1736 37.1429 56.313 36.1931 54.6672C35.2434 53.0214 33.9281 51.5788 32.4671 50.7356L32.4668 50.7355C31.0296 49.9106 29.7088 49.8019 28.7159 50.3351L28.7159 50.3351L28.7121 50.3373L28.6528 50.3718C28.6528 50.3719 28.6527 50.3719 28.6527 50.3719C27.659 50.9451 27.0633 52.1651 27.0633 53.8481C27.0633 55.5357 27.6556 57.3963 28.6066 59.0421C29.5576 60.6878 30.8741 62.1304 32.335 62.9748C33.7939 63.8193 35.1457 63.9142 36.137 63.34L36.2115 63.3015Z" fill="white" stroke="#19386D" stroke-width="0.249139"/>
<path d="M36.0169 63.123L36.0177 63.1226L36.0854 63.0839C36.9368 62.5536 37.4796 61.4527 37.4796 59.8599C37.4796 58.2276 36.9059 56.4097 35.9722 54.7918C35.0385 53.1739 33.7516 51.7676 32.3375 50.9515L36.0169 63.123ZM36.0169 63.123C35.1299 63.6383 33.8769 63.5782 32.4621 62.7592L32.462 62.7591M36.0169 63.123L32.462 62.7591M32.462 62.7591C31.0466 61.9418 29.7584 60.5354 28.8237 58.9175C27.8891 57.2996 27.3148 55.4817 27.3148 53.8482C27.3148 52.2178 27.89 51.1008 28.7796 50.5877L28.7796 50.5877M32.462 62.7591L28.7796 50.5877M28.7796 50.5877L28.7802 50.5874M28.7796 50.5877L28.7802 50.5874M28.7802 50.5874L28.8378 50.5538M28.7802 50.5874L28.8378 50.5538M28.8378 50.5538C29.7264 50.0836 30.9513 50.1531 32.3374 50.9514L28.8378 50.5538ZM35.9227 57.4564L36.0303 57.394L35.9681 57.2863L34.5754 54.8722L34.5132 54.7642L34.4052 54.8266L31.6808 56.4009L30.5396 54.4091L30.4774 54.3006L30.3692 54.3632L28.9765 55.1679L28.8689 55.23L28.9308 55.3378L31.5268 59.8596L31.5891 59.9681L31.6973 59.9054L35.9227 57.4564Z" fill="#19386D" stroke="#19386D" stroke-width="0.249139"/>
<path d="M29.2089 55.3214L30.3857 54.6415L31.5269 56.6332L31.589 56.7417L31.6973 56.6792L34.4221 55.1047L35.6902 57.303L31.6807 59.6175L29.2089 55.3214Z" fill="white" stroke="#19386D" stroke-width="0.249139"/>
<path d="M29.8508 75.8672L32.2941 71.3969C32.2329 71.3038 32.1761 71.2078 32.124 71.1093C31.5432 70.1106 30.6881 69.4451 29.9774 69.369L29.8508 75.8672ZM29.8508 75.8672L28.3789 72.3683L28.3602 72.3237L28.3161 72.3035L25.5375 71.0263L27.5542 67.3362C27.8244 67.8451 28.1768 68.2996 28.5643 68.6496C29.0041 69.0469 29.4986 69.3178 29.9774 69.369L29.8508 75.8672Z" fill="#C2DEF6" stroke="#19386D" stroke-width="0.249139"/>
<path d="M25.4708 39.9004C25.1878 39.7377 24.9098 39.6433 24.6504 39.6167L25.7497 38.9831C26.0724 38.8004 26.5365 38.8122 27.0782 39.1224C27.1786 39.1804 27.2831 39.2309 27.3907 39.2734C27.3089 39.3685 27.2415 39.4755 27.1911 39.5912C27.0458 39.9047 26.811 40.0857 26.5238 40.1412C26.2315 40.1978 25.8684 40.1272 25.4708 39.9004Z" fill="#A6CAEF" stroke="#19386D" stroke-width="0.249139"/>
<path d="M22.7878 42.3409C22.6136 42.4785 22.3879 42.5484 22.115 42.5316L23.0681 41.9797C22.9956 42.1313 22.9004 42.2519 22.7878 42.3409Z" fill="white" stroke="#19386D" stroke-width="0.249139"/>
<mask id="path-25-inside-1_4180_18758" fill="white">
<path d="M21.4824 42.7539L21.3927 42.8062C21.4214 42.7868 21.4514 42.7693 21.4824 42.7539Z"/>
</mask>
<path d="M21.4824 42.7539L21.3927 42.8062C21.4214 42.7868 21.4514 42.7693 21.4824 42.7539Z" fill="white"/>
<path d="M21.4824 42.7539L21.6079 42.9691L21.3716 42.5308L21.4824 42.7539ZM21.3927 42.8062L21.253 42.5999L21.5182 43.0214L21.3927 42.8062ZM21.3569 42.5387L21.2672 42.591L21.5182 43.0214L21.6079 42.9691L21.3569 42.5387ZM21.5324 43.0125C21.5519 42.9993 21.5721 42.9875 21.5932 42.9771L21.3716 42.5308C21.3306 42.5511 21.2909 42.5742 21.253 42.5999L21.5324 43.0125Z" fill="#19386D" mask="url(#path-25-inside-1_4180_18758)"/>
<path d="M39.0741 74.424V74.4222" stroke="#19386D" stroke-width="0.747418" stroke-linecap="round" stroke-linejoin="round"/>
<path d="M43.2448 73.6249L46.5035 83L43.606 80.9845L42.0315 82.8954L39.0767 74.4271" stroke="#19386D" stroke-width="0.747418" stroke-linecap="round" stroke-linejoin="round"/>
<path d="M27.5591 67.0775L25.3641 71.0936L28.2641 72.4265L29.8362 76.1537L32.4397 71.3901" stroke="#19386D" stroke-width="0.747418" stroke-linecap="round" stroke-linejoin="round"/>
<path d="M45.7985 70.7025C45.7596 70.8742 45.7395 71.0496 45.7387 71.2257C45.7387 71.876 45.507 72.3394 45.1333 72.5511" stroke="#373A3A" stroke-width="0.747418" stroke-linecap="round" stroke-linejoin="round"/>
<path d="M39.5575 74.3174C39.4077 74.39 39.2431 74.4267 39.0767 74.4246C38.5634 74.4246 37.9456 74.1156 37.3725 73.5127C36.6052 72.7105 35.7257 72.404 35.1303 72.7379C34.3829 73.154 33.2518 72.551 32.4346 71.39C32.3599 71.2854 32.2876 71.1758 32.2203 71.0587C31.6374 70.0422 30.7529 69.3371 29.9781 69.2549C29.0912 69.1602 28.1021 68.2359 27.5465 67.0774C27.4459 66.8652 27.3626 66.6453 27.2973 66.4197C26.976 65.3509 26.231 64.3444 25.4014 63.8635C24.2703 63.2008 23.351 61.6213 23.3435 60.2984C23.2838 59.2074 22.8378 58.1732 22.0854 57.3809C21.0514 56.2698 20.5531 54.6005 20.9742 53.6339C21.2856 52.9288 21.1112 51.8251 20.5282 50.7987C19.731 49.406 19.731 47.9112 20.5282 47.4403C21.1112 47.0965 21.2757 46.1796 20.9742 45.1133C20.6727 44.047 20.8471 43.1526 21.3927 42.8063C21.4214 42.7869 21.4514 42.7694 21.4824 42.754C21.6703 42.6657 21.879 42.6312 22.0854 42.6543C22.7032 42.7116 23.1442 42.3479 23.2937 41.7051C23.3321 41.5418 23.3513 41.3746 23.351 41.2068C23.351 40.5541 23.5877 40.0956 23.9589 39.8814C24.3301 39.6671 24.8458 39.6945 25.4089 40.0184C26.2385 40.4918 26.9834 40.3473 27.3048 39.6522C27.3772 39.4898 27.4853 39.3458 27.6212 39.2311C27.6604 39.1984 27.703 39.17 27.7483 39.1464C28.3263 38.825 29.1958 39.0841 29.9905 39.9163C30.7853 40.7484 31.6374 41.0274 32.2328 40.6936C33.04 40.2402 34.3355 40.9876 35.1427 42.3728C35.7307 43.3868 36.6102 44.0968 37.385 44.179C38.4339 44.2887 39.6273 45.5543 40.0732 47.0167C40.3946 48.0806 41.137 49.0871 41.9667 49.5704C43.1003 50.2331 44.0171 51.8127 44.0221 53.1331C44.0839 54.2256 44.5335 55.2601 45.2902 56.0505C46.3316 57.1617 46.8324 58.8334 46.4038 59.7876C46.0899 60.4902 46.2643 61.6088 46.8473 62.6253C47.6446 64.0155 47.6446 65.5153 46.8473 65.9837C46.2643 66.3275 46.0999 67.2294 46.4038 68.3082C46.7078 69.387 46.5209 70.3013 45.9554 70.6376" stroke="#19386D" stroke-width="0.747418" stroke-linecap="round" stroke-linejoin="round"/>
<path d="M41.4808 73.2063C40.8505 73.017 40.3198 73.2213 40.0607 73.7793C39.974 73.9695 39.836 74.1317 39.6621 74.2477" stroke="#19386D" stroke-width="0.747418" stroke-linecap="round" stroke-linejoin="round"/>
<path d="M43.4041 73.5501C43.3525 73.5792 43.2983 73.6034 43.2421 73.6224C43.0244 73.6814 42.7965 73.6931 42.5739 73.6566C42.3512 73.62 42.139 73.5361 41.9516 73.4106C41.8025 73.3256 41.6446 73.2571 41.4807 73.2063" stroke="#19386D" stroke-width="0.747418" stroke-linecap="round" stroke-linejoin="round"/>
<path d="M45.9329 70.6377C45.8901 70.6632 45.8451 70.6849 45.7984 70.7025C45.6314 70.7643 45.4523 70.7865 45.2752 70.7672C44.5103 70.6975 44.0121 71.2655 44.0071 72.2272C44.0071 72.86 43.7878 73.3135 43.4291 73.5352" stroke="#19386D" stroke-width="0.747418" stroke-linecap="round" stroke-linejoin="round"/>
<path d="M26.859 44.0196C28.6677 43.185 31.0595 43.4242 33.6779 44.9365C39.3135 48.1753 43.8777 56.0954 43.8777 62.5979C43.8777 65.625 42.8811 67.8149 41.2617 68.9635C39.3957 70.2789 36.69 70.2241 33.6779 68.4876C28.0474 65.2338 23.4832 57.3286 23.4832 50.8286C23.4832 47.3406 24.7886 44.9813 26.8565 44.0221L26.859 44.0196Z" stroke="#19386D" stroke-width="0.747418" stroke-linecap="round" stroke-linejoin="round"/>
<path d="M36.0795 63.2308C35.1402 63.7764 33.8372 63.6992 32.3997 62.8671C29.5221 61.2053 27.1902 57.1693 27.1902 53.8482C27.1902 52.1914 27.7757 51.023 28.7174 50.4799" stroke="#19386D" stroke-width="0.747418" stroke-linecap="round" stroke-linejoin="round"/>
<path d="M28.7748 50.4449C29.714 49.9467 30.9871 50.0314 32.3973 50.8436C35.2723 52.5028 37.6018 56.5414 37.6018 59.8599C37.6018 61.4793 37.0487 62.6303 36.1468 63.1909" stroke="#19386D" stroke-width="0.747418" stroke-linecap="round" stroke-linejoin="round"/>
<path d="M43.4043 73.5501L45.1333 72.551" stroke="#19386D" stroke-width="0.747418" stroke-linecap="round" stroke-linejoin="round"/>
<path d="M27.7483 39.134L29.4773 38.1375C30.0478 37.8061 30.9273 38.0777 31.7196 38.9098C32.5118 39.7419 33.3664 40.0185 33.9618 39.6871C34.7541 39.2312 36.0596 39.9811 36.8643 41.3613C37.4548 42.3728 38.3317 43.0854 39.1066 43.1676C40.1579 43.2772 41.3488 44.5428 41.7948 46.0028C42.1004 47.0529 42.7698 47.9599 43.6832 48.5615C44.8168 49.2242 45.7312 50.8037 45.7386 52.1242C45.7386 53.0809 46.2369 54.2319 47.0068 55.0416C48.0482 56.1527 48.5464 57.8245 48.1179 58.7787C47.804 59.4837 47.9809 60.5999 48.5639 61.6164C49.3611 63.0066 49.3611 64.5039 48.5639 64.9748C47.9809 65.3186 47.804 66.2329 48.1179 67.2992C48.4318 68.3656 48.235 69.2924 47.6645 69.6287L45.9404 70.6252" stroke="#19386D" stroke-width="0.747418" stroke-linecap="round" stroke-linejoin="round"/>
<path d="M23.9589 39.8665L25.6879 38.8699C26.0616 38.6581 26.5748 38.6855 27.1404 39.0094C27.2917 39.0988 27.4531 39.1699 27.6212 39.2212" stroke="#19386D" stroke-width="0.747418" stroke-linecap="round" stroke-linejoin="round"/>
<path d="M21.3927 42.8064L23.2936 41.7052" stroke="#19386D" stroke-width="0.747418" stroke-linecap="round" stroke-linejoin="round"/>
<path d="M35.8604 57.3486L31.635 59.7877L29.0389 55.2758L30.4316 54.4711L31.635 56.5713L34.4677 54.9345L35.8604 57.3486Z" stroke="#19386D" stroke-width="0.747418" stroke-linecap="round" stroke-linejoin="round"/>
<defs>
<clipPath id="clip0_4180_18758">
<rect width="40.5882" height="83.8235" fill="white" transform="translate(32.3423 7.99988)"/>
</clipPath>
</defs>
</svg>
